HIERARCHY
ROOT Hips
{
 OFFSET 0.000000 0.000000 0.000000
 CHANNELS 6 Xposition Yposition Zposition Yrotation Xrotation Zrotation
 JOINT Chest
 {
  OFFSET 0.000000 13.173100 -0.061900
  CHANNELS 3 Yrotation Xrotation Zrotation
  JOINT Chest2
  {
   OFFSET 0.000000 8.040800 0.126200
   CHANNELS 3 Yrotation Xrotation Zrotation
   JOINT Chest3
   {
    OFFSET 0.000000 7.994400 0.000000
    CHANNELS 3 Yrotation Xrotation Zrotation
    JOINT Chest4
    {
     OFFSET 0.000000 7.986200 0.000000
     CHANNELS 3 Yrotation Xrotation Zrotation
     JOINT Neck
     {
      OFFSET 0.000000 12.259400 0.000000
      CHANNELS 3 Yrotation Xrotation Zrotation
      JOINT Head
      {
       OFFSET 0.000000 7.518700 0.267100
       CHANNELS 3 Yrotation Xrotation Zrotation
       End Site
       {
        OFFSET 0.000000 13.617700 0.141000
       }
      }
     }
     JOINT RightCollar
     {
      OFFSET -2.983800 8.314300 0.000000
      CHANNELS 3 Yrotation Xrotation Zrotation
      JOINT RightShoulder
      {
       OFFSET -16.133400 0.000000 0.000000
       CHANNELS 3 Yrotation Xrotation Zrotation
       JOINT RightElbow
       {
        OFFSET 0.000000 -29.822100 0.000000
        CHANNELS 3 Yrotation Xrotation Zrotation
        JOINT RightWrist
        {
         OFFSET 0.000000 -24.437700 0.010900
         CHANNELS 3 Yrotation Xrotation Zrotation
         End Site
         {
          OFFSET 0.000000 -18.312300 0.000000
         }
        }
       }
      }
     }
     JOINT LeftCollar
     {
      OFFSET 2.983800 8.314300 0.000000
      CHANNELS 3 Yrotation Xrotation Zrotation
      JOINT LeftShoulder
      {
       OFFSET 16.133400 0.000000 0.000000
       CHANNELS 3 Yrotation Xrotation Zrotation
       JOINT LeftElbow
       {
        OFFSET 0.000000 -29.822100 0.000000
        CHANNELS 3 Yrotation Xrotation Zrotation
        JOINT LeftWrist
        {
         OFFSET 0.000000 -24.437700 0.010900
         CHANNELS 3 Yrotation Xrotation Zrotation
         End Site
         {
          OFFSET 0.000000 -18.312300 0.000000
         }
        }
       }
      }
     }
    }
   }
  }
 }
 JOINT RightHip
 {
  OFFSET -11.206700 0.306200 0.030900
  CHANNELS 3 Yrotation Xrotation Zrotation
  JOINT RightKnee
  {
   OFFSET 0.000000 -57.334900 0.009400
   CHANNELS 3 Yrotation Xrotation Zrotation
   JOINT RightAnkle
   {
    OFFSET 0.000000 -43.376200 0.036600
    CHANNELS 3 Yrotation Xrotation Zrotation
    JOINT RightToe
    {
     OFFSET 0.000000 -10.035500 18.363100
     CHANNELS 3 Yrotation Xrotation Zrotation
     End Site
     {
      OFFSET 0.000000 -1.618500 7.239000
     }
    }
   }
  }
 }
 JOINT LeftHip
 {
  OFFSET 11.206700 0.306200 0.030900
  CHANNELS 3 Yrotation Xrotation Zrotation
  JOINT LeftKnee
  {
   OFFSET 0.000000 -57.334900 0.009400
   CHANNELS 3 Yrotation Xrotation Zrotation
   JOINT LeftAnkle
   {
    OFFSET 0.000000 -43.376200 0.036600
    CHANNELS 3 Yrotation Xrotation Zrotation
    JOINT LeftToe
    {
     OFFSET 0.000000 -10.035500 18.363100
     CHANNELS 3 Yrotation Xrotation Zrotation
     End Site
     {
      OFFSET 0.000000 -1.618500 7.239000
     }
    }
   }
  }
 }
}
MOTION
Frames: 9
Frame Time: 0.008333
0.000000 110.232800 0.000000 0.000000 -5.767877 0.000000 0.000000 11.653817 0.000000 0.000000 -5.885947 0.000000 0.000000 -0.000000 0.000000 0.000000 -0.000000 0.000000 0.000000 12.528835 0.000000 0.000000 0.711642 0.000000 0.000000 -0.000000 0.000000 0.000000 0.000000 -90.000000 0.000000 -2.309062 0.000000 0.000000 2.309062 0.000000 0.000000 -0.000000 0.000000 0.000000 -0.000000 90.000000 0.000000 -2.309062 0.000000 0.000000 2.309062 0.000000 0.000000 8.520406 0.000000 0.000000 1.905762 0.000000 -0.000000 -4.658285 0.000000 0.000000 -0.000000 0.000000 0.000000 8.520406 0.000000 0.000000 1.905762 0.000000 -0.000000 -4.658285 0.000000 0.000000 -0.000000 0.000000
-76.837535 70.239538 52.846345 -171.056831 -27.823714 -10.302461 -2.222511 13.765231 7.388683 -2.094291 8.312479 2.035514 -2.577868 10.401402 2.502839 -2.094270 8.312435 2.035488 2.019530 19.967416 -0.866042 2.355972 -4.590092 -1.427401 5.727624 1.169066 -3.471507 -2.967338 -22.226247 -0.048510 63.474031 -40.300187 -47.795468 10.367599 14.177112 -3.647188 -10.950144 -2.422232 -6.454457 -11.076636 -22.843045 5.315424 -61.883243 -26.824548 50.165552 1.787297 3.609854 -3.434044 -25.383380 -29.757736 5.389880 57.209107 86.318518 55.215758 2.235628 -27.470041 -4.622978 -1.533918 3.066769 -0.825056 -15.681787 -47.404105 9.126162 179.556044 74.122846 177.517241 -2.213407 -25.165480 1.092589 -0.185117 -0.885657 -0.090908
-76.839379 70.260782 52.839678 -171.057240 -27.822394 -10.309438 -2.215719 13.768391 7.400880 -2.103697 8.316101 2.032895 -2.577306 10.391239 2.504058 -2.107289 8.310790 2.034413 2.032040 19.949575 -0.889585 2.366751 -4.658818 -1.492371 5.744926 1.154399 -3.482461 -2.937384 -22.260381 -0.032327 63.405497 -40.251037 -47.736169 10.432589 14.269201 -3.538856 -10.917686 -2.435962 -6.450464 -11.039402 -22.880409 5.139945 -61.744931 -26.682977 50.173427 1.789961 3.603800 -3.401510 -25.392661 -29.747314 5.391063 57.185267 86.315739 55.188891 2.255011 -27.488069 -4.625914 -1.541226 3.077958 -0.833018 -15.686251 -47.397483 9.147702 179.557849 74.119590 177.505632 -2.230756 -25.178717 1.109629 -0.185104 -0.882402 -0.091046
-76.841321 70.283863 52.834689 -171.058336 -27.810070 -10.315239 -2.217807 13.772927 7.403779 -2.103632 8.305718 2.033814 -2.589613 10.392973 2.500455 -2.091735 8.305037 2.037547 2.028075 19.907304 -0.930117 2.375630 -4.665028 -1.494700 5.746161 1.136747 -3.489679 -2.911066 -22.296461 -0.014286 63.344000 -40.202330 -47.676936 10.458274 14.307810 -3.497525 -10.897162 -2.451674 -6.445034 -11.013425 -22.877229 5.018687 -61.636042 -26.599208 50.217029 1.796261 3.586613 -3.372307 -25.404217 -29.750464 5.398892 57.188294 86.315902 55.189022 2.267929 -27.501022 -4.626651 -1.553861 3.084362 -0.838404 -15.697519 -47.400119 9.173864 179.563653 74.118724 177.497101 -2.243870 -25.199087 1.119869 -0.187180 -0.871423 -0.087286
-76.845100 70.308674 52.829714 -171.055490 -27.797427 -10.314627 -2.223667 13.764290 7.400690 -2.109350 8.306059 2.029878 -2.593111 10.390892 2.498688 -2.091020 8.305641 2.038767 2.024208 19.813054 -1.010405 2.390126 -4.623587 -1.456010 5.755821 1.119075 -3.493866 -2.893344 -22.318652 -0.001920 63.279883 -40.162427 -47.618976 10.483025 14.329018 -3.469167 -10.865109 -2.466693 -6.438814 -10.993683 -22.849419 4.924275 -61.561773 -26.548314 50.292288 1.807256 3.555386 -3.345331 -25.412291 -29.761839 5.398896 57.238404 86.324438 55.241826 2.269070 -27.504918 -4.630125 -1.547895 3.078650 -0.836002 -15.702173 -47.405953 9.180372 179.570355 74.119663 177.494927 -2.241461 -25.213608 1.115781 -0.189220 -0.866279 -0.080942
-76.845831 70.334804 52.824856 -171.062298 -27.786432 -10.321515 -2.218906 13.755840 7.409077 -2.117079 8.304338 2.024449 -2.597169 10.388423 2.496037 -2.109555 8.302069 2.030375 2.052096 19.773514 -1.040856 2.417571 -4.742183 -1.555680 5.790449 1.110091 -3.486224 -2.888379 -22.315533 0.001851 63.217573 -40.160787 -47.554981 10.532684 14.350813 -3.464422 -10.820130 -2.464497 -6.428990 -10.958611 -22.809692 4.837390 -61.535236 -26.506069 50.409476 1.815957 3.512083 -3.328923 -25.422312 -29.762766 5.411349 57.212429 86.324582 55.214905 2.282057 -27.515453 -4.636025 -1.554148 3.084583 -0.838750 -15.710543 -47.411203 9.209052 179.563505 74.115677 177.477715 -2.250032 -25.221697 1.123641 -0.193040 -0.869354 -0.081944
-76.844200 70.361211 52.820390 -171.071693 -27.776173 -10.335518 -2.213775 13.748648 7.421180 -2.118993 8.301243 2.024302 -2.596013 10.387514 2.496099 -2.120798 8.295623 2.025580 2.064371 19.736917 -1.074700 2.441650 -4.805443 -1.614366 5.811230 1.105148 -3.480832 -2.873407 -22.346581 -0.002210 63.151163 -40.147493 -47.484039 10.464838 14.384177 -3.589557 -10.786846 -2.461225 -6.424613 -10.913478 -22.749898 4.752648 -61.565545 -26.462188 50.572220 1.818024 3.457970 -3.324362 -25.427028 -29.757230 5.424291 57.156115 86.314868 55.171226 2.302105 -27.528484 -4.655618 -1.563461 3.096085 -0.840987 -15.713267 -47.414019 9.255761 179.506018 74.109411 177.406842 -2.291419 -25.234302 1.148082 -0.196059 -0.868656 -0.081567
-76.842338 70.386832 52.816398 -171.086287 -27.768134 -10.345735 -2.206669 13.741546 7.431556 -2.112867 8.299781 2.027888 -2.601476 10.385657 2.492831 -2.130268 8.285749 2.021742 2.075361 19.706187 -1.107521 2.460791 -4.839183 -1.651783 5.830343 1.104228 -3.475174 -2.857937 -22.399223 -0.026680 62.976590 -40.187066 -47.301266 10.463099 14.364879 -3.728024 -10.722181 -2.472158 -6.415064 -10.881398 -22.652220 4.657024 -61.657174 -26.410190 50.779457 1.815097 3.393409 -3.321995 -25.426434 -29.756315 5.440369 57.151648 86.310257 55.176237 2.310918 -27.530419 -4.666898 -1.564573 3.098005 -0.841305 -15.698794 -47.417410 9.287630 179.535089 74.103906 177.436415 -2.308787 -25.245989 1.162709 -0.185355 -0.868766 -0.082609
-76.840910 70.411372 52.812236 -171.099581 -27.765015 -10.352814 -2.198303 13.735402 7.438364 -2.115844 8.296865 2.026625 -2.622404 10.370574 2.482017 -2.113215 8.297079 2.025988 2.080712 19.679475 -1.140901 2.473632 -4.837881 -1.651931 5.844529 1.108493 -3.470136 -2.854504 -22.415308 -0.046416 62.860409 -40.247016 -47.183014 10.433445 14.343567 -3.879565 -10.682846 -2.469265 -6.408027 -10.822807 -22.552359 4.573787 -61.799963 -26.353448 51.024504 1.816640 3.314305 -3.306713 -25.424184 -29.753085 5.450486 57.171449 86.307342 55.205214 2.317154 -27.533426 -4.675442 -1.566929 3.099381 -0.844932 -15.693276 -47.418098 9.317323 179.513009 74.096603 177.410033 -2.330716 -25.250731 1.174985 -0.189553 -0.872087 -0.080619
